<svg id="Capa_1" enable-background="new 0 0 511.621 511.621" height="512" viewBox="0 0 511.621 511.621" width="512"
     xmlns="http://www.w3.org/2000/svg">
    <g fill="#F0F0F0">
        <path d="m107.836 248.712-22.825 22.824c-2.813 2.813-4.394 6.628-4.394 10.606s1.581 7.793 4.394 10.606l86.506 86.506c2.813 2.813 6.628 4.393 10.607 4.393 3.978 0 7.793-1.58 10.606-4.393l22.824-22.824z"/>
        <path d="m345.489 205.283-86.505-86.505c-5.857-5.858-15.355-5.858-21.213 0l-108.722 108.721 107.719 107.719 108.722-108.722c5.857-5.858 5.857-15.355-.001-21.213z"/>
        <path d="m123.754 511.621c-20.488 0-40.976-7.798-56.573-23.396-15.112-15.111-23.434-35.203-23.434-56.573s8.322-41.462 23.434-56.573l9.256-9.256c5.857-5.858 15.355-5.858 21.213 0s5.858 15.355 0 21.213l-9.256 9.256c-9.445 9.445-14.646 22.003-14.646 35.36s5.202 25.915 14.646 35.36c19.498 19.497 51.223 19.497 70.721 0l172.179-172.179c31.195-31.195 81.953-31.195 113.146 0 15.112 15.111 23.434 35.203 23.434 56.573 0 21.371-8.322 41.462-23.434 56.573l-98.101 98.101c-5.857 5.858-15.355 5.858-21.213 0s-5.858-15.355 0-21.213l98.101-98.101c9.445-9.445 14.647-22.003 14.647-35.36s-5.202-25.915-14.647-35.36c-19.498-19.498-51.223-19.498-70.721-.001l-172.178 172.18c-15.597 15.598-36.086 23.396-56.574 23.396z"/>
        <path d="m68.158 318.322-19.611 19.611c-2.813 2.813-4.394 6.628-4.394 10.607 0 3.978 1.581 7.793 4.394 10.606l56.575 56.575c2.929 2.929 6.768 4.394 10.607 4.394s7.678-1.464 10.606-4.394l19.611-19.611z"/>
        <path d="m311.472 80.632h87.898v60.006h-87.898z" transform="matrix(.707 -.707 .707 .707 25.87 283.725)"/>
        <path d="m429.054 79.689 30.98-13.432c3.656-1.585 6.022-5.19 6.022-9.175v-47.082c0-5.523-4.477-10-10-10h-47.083c-3.985 0-7.589 2.366-9.175 6.022l-13.432 30.98z"/>
    </g>
</svg>