<?xml version="1.0" encoding="iso-8859-1"?>
<svg version="1.1"
	 xmlns="http://www.w3.org/2000/svg"
	 xmlns:xlink="http://www.w3.org/1999/xlink"
	 x="0px" y="0px"
	 viewBox="0 0 512 512">
		<g fill="#F0F0F0">
			<path d="M409.632,162.624c-42.453,31.723-115.84,50.709-196.288,50.709S59.509,194.347,17.077,162.624
				c-3.243-2.411-7.552-2.795-11.157-1.003c-3.627,1.813-5.888,5.504-5.888,9.536V224c-0.021,36.053,85.717,74.667,213.312,74.667
				S426.677,260.053,426.677,224v-52.843c0-4.032-2.261-7.723-5.888-9.536C417.227,159.829,412.896,160.213,409.632,162.624z"/>
			<path d="M213.344,192c119.616,0,213.333-42.176,213.333-96S332.96,0,213.344,0S0.011,42.176,0.011,96S93.728,192,213.344,192z"/>
			<path d="M442.229,298.667c-38.464,0-69.76,31.296-69.76,69.76c0,3.136,0.256,6.315,0.725,9.6l-71.445,71.467
				c-2.005,2.005-3.115,4.715-3.115,7.552v44.288c0,5.888,4.779,10.667,10.667,10.667h44.288c2.837,0,5.547-1.131,7.552-3.115
				l71.488-71.467c42.709,6.677,79.36-27.371,79.36-68.992C512.011,329.941,480.693,298.667,442.229,298.667z M458.677,362.667
				c-5.888,0-10.667-4.779-10.667-10.667c0-5.888,4.779-10.667,10.667-10.667s10.667,4.779,10.667,10.667
				C469.344,357.888,464.565,362.667,458.677,362.667z"/>
			<path d="M213.344,405.333c39.936,0,77.504-3.883,111.595-11.52c1.984-0.448,3.776-1.429,5.205-2.88l17.92-17.92
				c1.941-1.92,3.051-4.523,3.115-7.253c0.469-17.237,5.952-33.984,15.808-48.427c2.539-3.755,2.453-8.661-0.213-12.309
				c-2.688-3.648-7.317-5.248-11.669-3.925C314.464,313.28,264.117,320,213.344,320c-80.768,0-154.411-15.851-197.013-42.411
				c-3.285-2.027-7.445-2.155-10.816-0.277c-3.392,1.899-5.504,5.461-5.504,9.344v44.011
				C0.011,366.72,85.749,405.333,213.344,405.333z"/>
			<path d="M272.245,423.659c-19.456,2.005-39.275,3.008-58.901,3.008c-80.768,0-154.411-15.851-197.013-42.411
				c-3.285-2.005-7.445-2.155-10.816-0.277c-3.392,1.899-5.504,5.461-5.504,9.344v26.752c0,50.112,91.712,87.872,213.333,87.872
				c17.941,0,36.245-0.96,54.421-2.859c5.461-0.576,9.579-5.141,9.579-10.603v-37.461c0-5.952,1.728-11.84,5.013-17.024
				c2.176-3.456,2.219-7.851,0.043-11.307C280.245,425.216,276.469,423.232,272.245,423.659z"/>
		</g>
</svg>